# xmcd CD database file
#
# Track frame offsets:
#	150
#	15964
#	29625
#	44145
#	54076
#	72299
#	85983
#	108967
#	123646
#	142856
#	156828
#	170789
#	182923
#	197024
#
# Disc length: 2801 seconds
#
# Revision: 0
# Processed by: cddbd v1.5.2PL0 Copyright (c) Steve Scherf et al.
# Submitted via: CDex 1.51
#
DISCID=c10aef0e
DTITLE=Count Basie - Jazz Ginats - CD1
DYEAR=2006
DGENRE=Jazz
TTITLE0=Ain't Misbehavin'
TTITLE1=One O'Clock Jump
TTITLE2=Stormy Monday Blues
TTITLE3=When My Dreamboat Comes Home
TTITLE4=Lester Leaps In
TTITLE5=Jumpin' At The Woodside
TTITLE6=Everyday I Have The Blues
TTITLE7=I Got It Bad And That Ain't Good
TTITLE8=Going To Chicago
TTITLE9=My Old Flame
TTITLE10=Lady Be Good
TTITLE11=April In Paris
TTITLE12=Fiesta In Blue
TTITLE13=All Of Me
EXTD=YEAR: 2006
EXTT0=
EXTT1=
EXTT2=
EXTT3=
EXTT4=
EXTT5=
EXTT6=
EXTT7=
EXTT8=
EXTT9=
EXTT10=
EXTT11=
EXTT12=
EXTT13=
PLAYORDER=
